<?xml version="1.0" encoding="utf-8"?><svg xmlns="http://www.w3.org/2000/svg" xmlns:xlink="http://www.w3.org/1999/xlink" width="1366" height="629" preserveAspectRatio="xMidYMid" viewBox="0 0 1366 629" data-darkreader-inline-bgimage="" data-darkreader-inline-bgcolor="" style="z-index:1;margin-right:-2px;display:block;background-repeat-y:initial;background-repeat-x:initial;background-color:rgb(30, 31, 32);animation-play-state:paused" ><g transform="" style="animation-play-state:paused" ><linearGradient id="lg-0.9362062608971871" x1="0" x2="1" y1="0" y2="0" style="animation-play-state:paused" ><stop stop-color="#ff00ff" offset="0" style="animation-play-state:paused" ></stop>

  
<stop stop-color="#00ffff" offset="1" style="animation-play-state:paused" ></stop></linearGradient>
<path d="M 0 0 L 0 587.133 Q 136.6 559.723 273.2 539.511 T 546.4 479.28 T 819.6 355.603 T 1092.8 353.51 T 1366 242.017 L 1366 0 Z" fill="url(#lg-0.9362062608971871)" opacity="0.4" style="opacity:0.4;animation-play-state:paused" ></path>
<path d="M 0 0 L 0 545.409 Q 136.6 509.128 273.2 481.083 T 546.4 464.752 T 819.6 368.315 T 1092.8 389.463 T 1366 256.996 L 1366 0 Z" fill="url(#lg-0.9362062608971871)" opacity="0.4" style="opacity:0.4;animation-play-state:paused" ></path>
<path d="M 0 0 L 0 576.303 Q 136.6 511.781 273.2 480.544 T 546.4 465.126 T 819.6 372.538 T 1092.8 302.116 T 1366 279.304 L 1366 0 Z" fill="url(#lg-0.9362062608971871)" opacity="0.4" style="opacity:0.4;animation-play-state:paused" ></path>
<path d="M 0 0 L 0 562.375 Q 136.6 578.077 273.2 551.073 T 546.4 437.211 T 819.6 424.196 T 1092.8 369.215 T 1366 326.419 L 1366 0 Z" fill="url(#lg-0.9362062608971871)" opacity="0.4" style="opacity:0.4;animation-play-state:paused" ></path>
<path d="M 0 0 L 0 576.706 Q 136.6 551.552 273.2 525.334 T 546.4 429.866 T 819.6 399.174 T 1092.8 370.983 T 1366 334.817 L 1366 0 Z" fill="url(#lg-0.9362062608971871)" opacity="0.4" style="opacity:0.4;animation-play-state:paused" ></path></g></svg>